<svg xmlns="http://www.w3.org/2000/svg" width="89" height="34" viewBox="0 0 89 34">
    <defs>
        <filter id="8tjw7mkm7a">
            <feColorMatrix in="SourceGraphic" values="0 0 0 0 0.653629 0 0 0 0 0.654210 0 0 0 0 0.688293 0 0 0 1.000000 0"/>
        </filter>
    </defs>
    <g fill="none" fill-rule="evenodd">
        <g>
            <g filter="url(#8tjw7mkm7a)" transform="translate(-216 -1678) translate(0 1652)">
                <g fill-rule="nonzero">
                    <path fill="#1D45DB" d="M14.619.165c3.251-.456 6.636.036 9.606 1.442 2.641 1.237 4.944 3.173 6.639 5.545-6.729-1.222-13.873-.062-19.83 3.308v4.97c2.835-1.96 6.073-3.336 9.454-4.006 4.24-.843 8.695-.605 12.81.724.965 3.243.936 6.776-.091 10-.817 2.583-2.269 4.958-4.184 6.872-2.12 2.124-4.81 3.676-7.716 4.43-4.063 1.068-8.518.57-12.23-1.403.775-3.057 2.432-5.882 4.712-8.06 2.5-2.41 5.759-4.018 9.195-4.535v-4.118c-3.626.432-7.13 1.83-10.063 4.006-3.43 2.531-6.07 6.115-7.461 10.145-2.177-2.012-3.821-4.599-4.696-7.431-1.112-3.563-1.009-7.492.3-10.988C2.166 8.098 4.12 5.456 6.63 3.527 8.942 1.741 11.724.566 14.62.165z" transform="translate(216 26)"/>
                    <path fill="#000" d="M40.001 7H53v3.756c-3.07.002-6.14 0-9.21.001-.002 1.65-.002 3.3 0 4.948 2.884.002 5.768 0 8.653.002v3.724c-2.885.002-5.769 0-8.653.002-.003 2.522.001 5.044-.002 7.567h-3.786c-.002-6.666 0-13.333 0-20zM56.001 7H60c-.004 6.667-.021 13.333-.028 20h-3.97c-.003-6.667-.002-13.333 0-20zM66.596 12.12c1.527-.252 3.146-.128 4.564.56 1.722.842 3.057 2.52 3.553 4.461.359 1.415.378 2.925.077 4.354-.405 1.92-1.61 3.629-3.229 4.588-1.417.847-3.11 1.054-4.705.837-1.263-.172-2.483-.725-3.444-1.616-1.193-1.081-2.023-2.603-2.284-4.246-.277-1.755-.124-3.634.655-5.231.944-1.94 2.768-3.379 4.813-3.706m.472 3.725c-1.142.287-2.035 1.331-2.309 2.526-.301 1.31-.08 2.83.834 3.82.894 1.06 2.418 1.28 3.645.83 1.009-.381 1.763-1.36 2.008-2.453.164-.74.159-1.523-.021-2.257-.26-1.038-.978-1.96-1.932-2.345-.706-.281-1.494-.305-2.225-.121z" transform="translate(216 26)"/>
                    <path fill="#000" d="M75.002 13.006c1.424-.006 2.847.005 4.271-.006.922 1.297 1.814 2.618 2.727 3.922.905-1.304 1.808-2.61 2.71-3.915 1.43-.004 2.859-.002 4.288-.002-1.612 2.333-3.228 4.663-4.84 6.996 1.613 2.333 3.23 4.664 4.842 6.997-1.43 0-2.86.007-4.291-.004-.9-1.307-1.804-2.61-2.708-3.914-.912 1.302-1.81 2.615-2.719 3.92-1.427 0-2.855.001-4.282-.002 1.62-2.335 3.249-4.663 4.87-6.998-1.621-2.333-3.248-4.661-4.868-6.994z" transform="translate(216 26)"/>
                </g>
            </g>
        </g>
    </g>
</svg>
