<svg xmlns="http://www.w3.org/2000/svg" width="118" height="37" viewBox="0 0 118 37">
    <g fill="none" fill-rule="evenodd">
        <g fill-rule="nonzero">
            <g>
                <g>
                    <g transform="translate(-216 -1677) translate(0 1652) translate(216 25)">
                        <circle cx="18.081" cy="18.081" r="18.081" fill="#A7A7B0"/>
                        <path fill="#FFF" d="M15.043 29.263L15.043 19.977 24.141 19.977 24.141 16.663 15.043 16.663 15.043 10.223 25.141 10.223 25.141 6.878 11.541 6.878 11.541 29.263z"/>
                    </g>
                    <path fill="#A7A7B0" d="M52.22 24.931c.887 0 1.684-.134 2.389-.402.705-.268 1.313-.633 1.825-1.095.511-.462.919-.987 1.223-1.575.304-.588.495-1.2.571-1.835l-2.96-.013c-.068.37-.188.698-.362.987-.173.288-.39.532-.652.733-.261.2-.56.353-.895.456-.336.104-.7.156-1.092.156-.698 0-1.313-.172-1.845-.514s-.945-.85-1.24-1.52c-.295-.672-.443-1.501-.443-2.488 0-.96.147-1.776.44-2.45.292-.673.705-1.187 1.236-1.54.532-.355 1.156-.531 1.872-.531.397 0 .765.056 1.105.169.34.112.641.274.903.486.261.212.475.468.642.767.166.3.277.641.33 1.024h2.961c-.094-.802-.31-1.514-.645-2.136-.336-.621-.77-1.147-1.301-1.578-.532-.43-1.141-.758-1.829-.983-.687-.225-1.431-.338-2.233-.338-1.217 0-2.312.278-3.285.835-.973.556-1.744 1.364-2.311 2.423-.568 1.059-.852 2.343-.852 3.852 0 1.505.28 2.787.841 3.846.561 1.059 1.327 1.867 2.298 2.426.971.559 2.074.838 3.309.838zm12.747.014c1.05 0 1.956-.224 2.72-.673.764-.448 1.353-1.074 1.767-1.879.415-.804.622-1.738.622-2.801 0-1.072-.207-2.01-.622-2.815-.414-.804-1.003-1.43-1.767-1.879-.764-.448-1.67-.672-2.72-.672-1.05 0-1.957.224-2.72.672-.765.448-1.354 1.075-1.768 1.879-.415.804-.622 1.743-.622 2.815 0 1.063.207 1.997.622 2.801.414.805 1.003 1.43 1.767 1.88.764.448 1.67.672 2.72.672zm.013-2.23c-.482 0-.886-.137-1.213-.41-.327-.272-.572-.645-.737-1.118-.164-.473-.247-1.012-.247-1.615 0-.604.083-1.143.247-1.616.165-.473.41-.847.737-1.122.327-.274.73-.412 1.213-.412.478 0 .876.138 1.196.412.32.275.562.65.727 1.122.164.473.247 1.012.247 1.616 0 .603-.083 1.142-.247 1.615-.165.473-.407.846-.727 1.118-.32.273-.718.41-1.196.41zm9.854 2.027V18.74c.005-.446.09-.828.254-1.145.164-.318.394-.56.689-.727.295-.167.636-.25 1.024-.25.577 0 1.03.18 1.358.537.33.359.491.855.487 1.49v6.097h2.88v-6.61c0-.807-.15-1.502-.447-2.085-.297-.584-.714-1.033-1.25-1.348-.536-.316-1.165-.473-1.886-.473-.77 0-1.426.176-1.967.53-.54.354-.926.833-1.155 1.436h-.122v-1.831h-2.744v10.38h2.88zm12.47 0l-.001-8.218h2.069V14.36h-2.07l.002-.696c0-.302.061-.546.183-.733l.067-.089c.167-.196.462-.294.885-.294.171 0 .34.016.504.048.164.031.303.065.415.101l.514-2.163c-.18-.054-.454-.115-.821-.182-.367-.068-.772-.102-1.213-.102-.654 0-1.237.124-1.75.372-.514.248-.919.62-1.214 1.115-.295.496-.443 1.12-.443 1.872v.75h-1.466v2.163h1.466v8.219h2.873zm6.704 0V10.9H91.13v13.842h2.88zm5.813.135c.78 0 1.44-.185 1.983-.554.543-.37.932-.858 1.166-1.467h.108v1.886h2.765V14.36h-2.88v5.96c.005.465-.086.855-.273 1.17-.187.315-.432.553-.734.713-.301.16-.626.24-.973.24-.545 0-.98-.178-1.304-.534-.325-.356-.49-.84-.494-1.453v-6.096h-2.879v6.61c.005.81.155 1.507.45 2.088.295.581.706 1.03 1.233 1.345.527.315 1.138.473 1.832.473zm10.617-.135l2.015-3.589 2.047 3.589h2.94l-3.088-5.19 3.007-5.191h-2.953l-1.953 3.63-1.906-3.63h-2.974l2.974 5.19-3.082 5.19h2.973z" transform="translate(-216 -1677) translate(0 1652) translate(216 25)"/>
                </g>
            </g>
        </g>
    </g>
</svg>
