<svg xmlns="http://www.w3.org/2000/svg" width="124" height="38" viewBox="0 0 124 38">
    <g fill="none" fill-rule="evenodd">
        <g fill-rule="nonzero">
            <g>
                <g transform="translate(-216 -20) translate(216 20)">
                    <circle cx="19" cy="19" r="19" fill="#1D45DB"/>
                    <path fill="#FFF" d="M15.808 30.75L15.808 20.993 25.368 20.993 25.368 17.511 15.808 17.511 15.808 10.743 26.419 10.743 26.419 7.228 12.128 7.228 12.128 30.75z"/>
                </g>
                <path fill="#1D45DB" d="M54.875 26.199c.933 0 1.77-.141 2.51-.423.742-.281 1.38-.665 1.918-1.15.538-.486.966-1.037 1.286-1.655.32-.618.52-1.26.6-1.928l-3.11-.015c-.072.389-.199.734-.38 1.037-.183.303-.412.56-.686.77-.275.212-.589.371-.941.48-.353.11-.735.164-1.147.164-.734 0-1.38-.18-1.94-.54-.558-.36-.992-.893-1.302-1.598-.31-.706-.466-1.577-.466-2.614 0-1.008.154-1.866.462-2.574.308-.708.741-1.248 1.3-1.62.558-.371 1.214-.557 1.967-.557.417 0 .804.059 1.161.177.358.119.674.29.948.512.275.222.5.491.675.806.175.315.291.673.348 1.076h3.11c-.099-.843-.325-1.591-.677-2.244-.353-.654-.809-1.207-1.368-1.659-.558-.452-1.199-.796-1.92-1.033-.723-.237-1.505-.355-2.348-.355-1.278 0-2.429.292-3.452.877-1.022.585-1.832 1.433-2.429 2.546-.596 1.113-.895 2.462-.895 4.048 0 1.582.295 2.929.885 4.041.59 1.113 1.394 1.963 2.414 2.55 1.02.587 2.18.88 3.477.88zm13.395.014c1.103 0 2.056-.235 2.859-.707.802-.47 1.421-1.129 1.857-1.974.435-.845.653-1.827.653-2.944 0-1.127-.218-2.113-.653-2.958-.436-.845-1.055-1.503-1.857-1.974-.803-.472-1.756-.707-2.86-.707-1.102 0-2.055.235-2.858.707-.802.47-1.421 1.129-1.857 1.974-.436.845-.653 1.831-.653 2.958 0 1.117.217 2.099.653 2.944.436.845 1.055 1.503 1.857 1.974.803.472 1.756.707 2.859.707zm.014-2.344c-.507 0-.931-.143-1.275-.43-.343-.286-.601-.678-.774-1.175-.173-.497-.26-1.063-.26-1.697 0-.635.087-1.2.26-1.698.173-.497.431-.89.774-1.179.344-.288.768-.433 1.275-.433.502 0 .921.145 1.257.433.336.29.59.682.764 1.18.173.496.259 1.062.259 1.697 0 .634-.086 1.2-.26 1.697-.172.497-.427.89-.763 1.176-.336.286-.755.43-1.257.43zM78.64 26v-6.307c.005-.469.094-.87.267-1.204.172-.333.414-.588.724-.763.31-.175.669-.263 1.076-.263.606 0 1.082.188 1.428.565.345.376.516.898.51 1.566V26h3.026v-6.946c0-.848-.156-1.578-.468-2.191-.313-.613-.75-1.086-1.314-1.417-.564-.331-1.224-.497-1.982-.497-.81 0-1.498.186-2.067.557-.568.372-.973.875-1.214 1.51h-.128V15.09h-2.883V26h3.025zm13.104 0l-.001-8.636h2.174V15.09h-2.174v-.732c0-.316.065-.573.194-.77l.07-.093c.175-.206.485-.309.93-.309.18 0 .356.017.53.05.172.033.318.069.436.107l.54-2.273c-.19-.057-.477-.12-.863-.192-.386-.07-.811-.106-1.275-.106-.687 0-1.3.13-1.84.39s-.964.651-1.274 1.172c-.31.521-.466 1.177-.466 1.968v.788h-1.54v2.273h1.54V26h3.019zm7.045 0V11.455h-3.025V26h3.025zm6.108.142c.82 0 1.514-.194 2.085-.582.57-.389.979-.902 1.225-1.542h.114V26h2.904V15.09H108.2v6.265c.005.488-.091.897-.288 1.229-.196.331-.453.581-.77.75-.318.167-.659.251-1.023.251-.573 0-1.03-.187-1.37-.56-.342-.375-.515-.884-.52-1.528v-6.406h-3.025v6.946c.005.852.162 1.584.472 2.195.31.61.743 1.081 1.297 1.413.554.331 1.195.497 1.924.497zM116.054 26l2.116-3.771L120.322 26h3.09l-3.246-5.455 3.16-5.454h-3.103l-2.053 3.814-2.002-3.814h-3.125l3.125 5.454L112.929 26h3.125z" transform="translate(-216 -20) translate(216 20)"/>
            </g>
        </g>
    </g>
</svg>
