<svg xmlns="http://www.w3.org/2000/svg" width="23" height="23" viewBox="0 0 23 23">
    <g fill="none" fill-rule="evenodd">
        <g fill="#000">
            <g>
                <g>
                    <path d="M11.5 0C5.147 0 0 5.277 0 11.79 0 17 3.294 21.42 7.865 22.979c.577.108.786-.253.786-.568 0-.28-.011-1.02-.015-2.003-3.2.71-3.874-1.581-3.874-1.581-.524-1.363-1.277-1.727-1.277-1.727-1.044-.73.079-.714.079-.714 1.153.084 1.76 1.212 1.76 1.212 1.025 1.804 2.69 1.282 3.346.983.105-.764.404-1.282.73-1.577-2.553-.296-5.237-1.31-5.237-5.827 0-1.29.449-2.34 1.183-3.166-.116-.296-.513-1.497.112-3.12 0 0 .966-.315 3.163 1.209.917-.261 1.902-.392 2.879-.396.977.004 1.962.135 2.879.396 2.197-1.524 3.16-1.21 3.16-1.21.628 1.624.235 2.825.115 3.121.738.825 1.18 1.877 1.18 3.166 0 4.53-2.688 5.523-5.249 5.819.412.36.779 1.082.779 2.18 0 1.577-.011 2.848-.011 3.235 0 .315.205.684.79.568C19.708 21.416 23 16.998 23 11.791 23 5.277 17.853 0 11.5 0z" transform="translate(-1202 -1684) translate(0 1652) translate(1202 32)"/>
                </g>
            </g>
        </g>
    </g>
</svg>
