<svg xmlns="http://www.w3.org/2000/svg" width="26" height="21" viewBox="0 0 26 21">
    <g fill="none" fill-rule="evenodd">
        <g fill="#30A8F8">
            <g>
                <g>
                    <path d="M25.907 2.338c-.953.397-1.978.662-3.052.783 1.097-.616 1.94-1.593 2.337-2.755-1.029.57-2.166.984-3.377 1.209C20.847.605 19.465 0 17.937 0c-2.935 0-5.316 2.231-5.316 4.981 0 .391.046.772.138 1.136C8.34 5.91 4.425 3.927 1.803.914c-.458.736-.719 1.59-.719 2.504 0 1.727.938 3.254 2.364 4.146-.87-.027-1.69-.25-2.407-.624v.065c0 2.413 1.831 4.426 4.263 4.883-.445.114-.916.173-1.4.173-.343 0-.675-.03-1-.087.676 1.977 2.64 3.419 4.965 3.46-1.819 1.335-4.11 2.13-6.601 2.13-.43 0-.852-.023-1.268-.069 2.352 1.412 5.146 2.239 8.148 2.239 9.777 0 15.123-7.592 15.123-14.173 0-.218-.007-.43-.017-.645 1.039-.703 1.94-1.58 2.653-2.578z" transform="translate(-1152 -1685) translate(0 1652) translate(1152 33)"/>
                </g>
            </g>
        </g>
    </g>
</svg>
